<svg width="16" height="16" viewBox="0 0 16 16" fill="none" xmlns="http://www.w3.org/2000/svg">
<path d="M14 8C14 8.18188 13.9931 8.36137 13.9804 8.53846C13.9538 8.90701 13.8983 9.26598 13.8186 9.61538C13.7342 9.98752 13.621 10.3477 13.4812 10.6923C13.3356 11.0561 13.1611 11.4031 12.96 11.7309C12.9531 11.7441 12.945 11.7573 12.9369 11.7692C12.6988 12.1557 12.4238 12.5159 12.1188 12.8462C12.054 12.9156 11.987 12.985 11.92 13.052C11.6011 13.3679 11.2532 13.6526 10.88 13.8991C10.8684 13.9075 10.8557 13.9159 10.843 13.9231C10.5264 14.1313 10.1913 14.312 9.84 14.4627C9.5072 14.6075 9.15938 14.7248 8.8 14.8121C8.46258 14.8947 8.11591 14.9521 7.76 14.9797C7.58898 14.9928 7.41564 15 7.24 15H2.04C1.75227 15 1.52 14.7595 1.52 14.4615C1.52 14.1636 1.75227 13.9231 2.04 13.9231H6.72C7.29431 13.9231 7.76 13.4409 7.76 12.8462C7.76 12.2515 7.29431 11.7692 6.72 11.7692H3.6C3.31227 11.7692 3.08 11.5287 3.08 11.2308C3.08 10.9328 3.31227 10.6923 3.6 10.6923H9.84C10.4143 10.6923 10.88 10.2101 10.88 9.61538C10.88 9.02068 10.4143 8.53846 9.84 8.53846H1.52C1.23227 8.53846 1 8.29795 1 8C1 7.70205 1.23227 7.46154 1.52 7.46154H5.68C6.25431 7.46154 6.72 6.97932 6.72 6.38462C6.72 5.78991 6.25431 5.30769 5.68 5.30769H2.56C2.27227 5.30769 2.04 5.06718 2.04 4.76923C2.04 4.47128 2.27227 4.23077 2.56 4.23077H7.76C8.33431 4.23077 8.8 3.74855 8.8 3.15385C8.8 2.55915 8.33431 2.07692 7.76 2.07692H2.04C1.75227 2.07692 1.52 1.83641 1.52 1.53846C1.52 1.24051 1.75342 1 2.04 1H7.24C7.41564 1 7.58898 1.00718 7.76 1.02034C8.11591 1.04786 8.46258 1.1053 8.8 1.18786C9.15938 1.27521 9.5072 1.39248 9.84 1.53726C10.1913 1.68803 10.5264 1.86872 10.843 2.07692C10.8557 2.0841 10.8684 2.09248 10.88 2.10085C11.2532 2.34735 11.6011 2.63214 11.92 2.94803C11.987 3.01504 12.054 3.08444 12.1188 3.15385C12.4238 3.4841 12.6988 3.84427 12.9369 4.23077C12.945 4.24274 12.9531 4.2559 12.96 4.26906C13.1611 4.59692 13.3356 4.94393 13.4812 5.30769C13.621 5.65231 13.7342 6.01248 13.8186 6.38462C13.8983 6.73402 13.9538 7.09299 13.9804 7.46154C13.9931 7.63863 14 7.81812 14 8Z" fill="url(#paint0_linear_1_38)"/>
<defs>
<linearGradient id="paint0_linear_1_38" x1="1" y1="1" x2="14.1111" y2="15.2778" gradientUnits="userSpaceOnUse">
<stop stop-color="#DCED31"/>
<stop offset="0.140625" stop-color="#E4B747"/>
<stop offset="0.276042" stop-color="#EC835D"/>
<stop offset="0.390625" stop-color="#F35670"/>
<stop offset="0.619792" stop-color="#CF208D"/>
<stop offset="0.75" stop-color="#A61698"/>
<stop offset="0.885417" stop-color="#7B0CA3"/>
<stop offset="1" stop-color="#5603AD"/>
</linearGradient>
</defs>
</svg>
